#define tRex_width 20
#define tRex_height 20
static unsigned char tRex_bits[] = {
   0x00, 0xf8, 0x07, 0x00, 0xec, 0x0f, 0x00, 0xfc, 0x0f, 0x00, 0xfc, 0x0f,
   0x00, 0xfc, 0x0f, 0x00, 0x7c, 0x00, 0x00, 0xfe, 0x03, 0x01, 0x3f, 0x00,
   0x81, 0x3f, 0x00, 0xc3, 0xff, 0x00, 0xe7, 0xbf, 0x00, 0xff, 0x3f, 0x00,
   0xfe, 0x3f, 0x00, 0xfc, 0x1f, 0x00, 0xf8, 0x0f, 0x00, 0xf0, 0x07, 0x00,
   0xe0, 0x06, 0x00, 0x60, 0x04, 0x00, 0x20, 0x04, 0x00, 0x60, 0x0c, 0x00 };
